<?xml version="1.0" standalone="no"?>
<!DOCTYPE svg PUBLIC "-//W3C//DTD SVG 20010904//EN"
 "http://www.w3.org/TR/2001/REC-SVG-20010904/DTD/svg10.dtd">
<svg version="1.0" xmlns="http://www.w3.org/2000/svg"
 width="80.000000pt" height="80.000000pt" viewBox="0 0 80.000000 80.000000"
 preserveAspectRatio="xMidYMid meet">
<metadata>
Created by potrace 1.14, written by Peter Selinger 2001-2017
</metadata>
<g transform="translate(0.000000,80.000000) scale(0.100000,-0.100000)"
fill="#000000" stroke="none">
<path d="M380 655 c-11 -13 -5 -32 29 -111 23 -52 41 -100 39 -106 -2 -6 -34
35 -70 93 -66 106 -91 126 -117 95 -13 -16 2 -49 86 -193 39 -67 12 -51 -53
32 -58 73 -84 93 -104 80 -21 -13 -8 -48 46 -126 30 -45 53 -84 49 -87 -3 -4
-31 19 -62 51 -57 59 -86 69 -91 32 -2 -20 90 -151 181 -258 80 -92 178 -112
267 -53 65 43 80 85 91 259 5 95 5 155 -1 161 -20 20 -58 -12 -77 -64 l-19
-52 -74 124 c-86 145 -95 153 -120 123z"/>
<path d="M534 630 c19 -22 38 -51 42 -65 6 -25 24 -35 24 -14 0 23 -33 80 -58
99 -42 33 -46 22 -8 -20z"/>
<path d="M492 613 c14 -16 35 -46 46 -68 17 -33 21 -36 22 -17 0 31 -25 77
-52 96 -35 25 -44 19 -16 -11z"/>
<path d="M121 300 c14 -37 62 -90 83 -90 11 0 3 13 -23 39 -21 21 -42 48 -46
60 -3 12 -10 21 -15 21 -5 0 -4 -13 1 -30z"/>
<path d="M85 283 c8 -34 41 -80 67 -94 31 -17 34 -2 4 22 -14 11 -36 38 -46
60 -24 45 -35 51 -25 12z"/>
</g>
</svg>
